<svg width="137" height="32" viewBox="0 0 137 32" fill="none" xmlns="http://www.w3.org/2000/svg">
<path d="M16.4409 2L16.8171 12.6611L19.5562 2.35101L22.5153 3.38644L18.2285 13.155L25.1698 5.05436L27.3866 7.27114L19.2859 14.2124L29.0545 9.92564L30.0899 12.8847L19.7798 15.6238L30.4409 16L30.0899 19.1153L19.6124 17.1097L29.0545 22.0744L27.3866 24.7289L18.8168 18.3759L25.1698 26.9456L22.5153 28.6136L17.5507 19.1715L19.5562 29.649L16.4409 30L16.0647 19.3389L13.3256 29.649L10.3666 28.6136L14.6533 18.845L7.71206 26.9456L5.49528 24.7289L13.5959 17.7876L3.82736 22.0744L2.79193 19.1153L13.1021 16.3762L2.44092 16L2.79193 12.8847L13.2695 14.8903L3.82736 9.92564L5.49528 7.27114L14.065 13.6241L7.71206 5.05436L10.3666 3.38644L15.3312 12.8285L13.3256 2.35101L16.4409 2Z" fill="#CBCBCB"/>
<path d="M40.2595 20.8807C39.4378 20.8807 38.6845 20.6607 37.9999 20.2207C37.3289 19.7674 36.7947 19.154 36.3975 18.3807C36.0003 17.594 35.8018 16.7007 35.8018 15.7007C35.8018 14.7007 35.9935 13.8073 36.377 13.0207C36.7605 12.234 37.2876 11.614 37.9589 11.1607C38.6298 10.7074 39.3968 10.4807 40.2595 10.4807C41.0265 10.4807 41.6496 10.6207 42.1288 10.9007C42.622 11.1673 42.9987 11.5407 43.2588 12.0207C43.5189 12.5007 43.697 13.054 43.7931 13.6807C43.9024 14.3073 43.9571 14.9807 43.9571 15.7007C43.9571 16.2073 43.9024 16.7607 43.7931 17.3607C43.6833 17.9473 43.4916 18.514 43.2178 19.0607C42.9577 19.594 42.5879 20.034 42.1083 20.3807C41.6291 20.714 41.0129 20.8807 40.2595 20.8807ZM40.6704 19.3607C41.369 19.3607 41.9439 19.194 42.3961 18.8607C42.8616 18.5273 43.2041 18.0873 43.4232 17.5407C43.6423 16.9807 43.7517 16.3673 43.7517 15.7007C43.7517 14.9673 43.6355 14.3273 43.4027 13.7807C43.1836 13.2207 42.8411 12.7874 42.3756 12.4807C41.9234 12.1607 41.3553 12.0007 40.6704 12.0007C39.6433 12.0007 38.8489 12.354 38.2873 13.0607C37.7261 13.754 37.4451 14.634 37.4451 15.7007C37.4451 16.4073 37.5822 17.0407 37.856 17.6007C38.1438 18.1473 38.5273 18.5807 39.0065 18.9007C39.4993 19.2073 40.0541 19.3607 40.6704 19.3607ZM43.7517 6.68066H45.3954V20.6807H43.8956C43.8683 20.3873 43.8341 20.0407 43.7931 19.6407C43.7657 19.2407 43.7517 18.9207 43.7517 18.6807V6.68066Z" fill="#CBCBCB"/>
<path d="M52.8316 20.8807C51.9549 20.8807 51.1332 20.674 50.3662 20.2607C49.5996 19.8473 48.9761 19.254 48.4969 18.4807C48.0314 17.694 47.7986 16.7674 47.7986 15.7007C47.7986 14.634 48.0314 13.714 48.4969 12.9407C48.9761 12.154 49.5996 11.5474 50.3662 11.1207C51.1332 10.694 51.9549 10.4807 52.8316 10.4807C53.708 10.4807 54.5228 10.694 55.2762 11.1207C56.0432 11.5474 56.6594 12.154 57.125 12.9407C57.5905 13.714 57.8233 14.634 57.8233 15.7007C57.8233 16.7674 57.5905 17.694 57.125 18.4807C56.6594 19.254 56.0432 19.8473 55.2762 20.2607C54.5228 20.674 53.708 20.8807 52.8316 20.8807ZM52.8316 19.3807C53.4065 19.3807 53.9476 19.2407 54.4545 18.9607C54.961 18.6807 55.3719 18.2673 55.687 17.7207C56.0155 17.1607 56.1799 16.4873 56.1799 15.7007C56.1799 14.914 56.0155 14.2473 55.687 13.7007C55.3719 13.1407 54.961 12.714 54.4545 12.4207C53.9476 12.1273 53.4065 11.9807 52.8316 11.9807C52.2564 11.9807 51.7085 12.1273 51.1879 12.4207C50.6813 12.7007 50.2637 13.1207 49.9349 13.6807C49.6064 14.2273 49.442 14.9007 49.442 15.7007C49.442 16.4873 49.5996 17.1607 49.9143 17.7207C50.2432 18.2673 50.6677 18.6807 51.1879 18.9607C51.7085 19.2407 52.2564 19.3807 52.8316 19.3807Z" fill="#CBCBCB"/>
<path d="M59.9091 10.6807H61.5525V20.6807H59.9091V10.6807ZM64.8393 12.1807C64.141 12.1807 63.552 12.354 63.0725 12.7007C62.607 13.034 62.2371 13.4473 61.9634 13.9407C61.7029 14.4207 61.532 14.8873 61.4496 15.3407L61.4291 14.1807C61.4291 14.0607 61.4565 13.8607 61.5115 13.5807C61.5662 13.3007 61.6687 12.9873 61.8195 12.6407C61.9702 12.2807 62.1688 11.9407 62.4152 11.6207C62.6753 11.2873 63.0041 11.014 63.4013 10.8007C63.7985 10.5874 64.2777 10.4807 64.8393 10.4807V12.1807Z" fill="#CBCBCB"/>
<path d="M70.5724 20.8807C69.7643 20.8807 69.0179 20.6607 68.3332 20.2207C67.6623 19.7674 67.1212 19.154 66.7104 18.3807C66.3132 17.594 66.1146 16.7007 66.1146 15.7007C66.1146 14.7007 66.32 13.8073 66.7309 13.0207C67.1417 12.234 67.6965 11.614 68.3948 11.1607C69.1071 10.7074 69.9014 10.4807 70.7778 10.4807C71.7365 10.4807 72.4622 10.7207 72.9554 11.2007C73.4619 11.6674 73.8044 12.294 73.9825 13.0807C74.1743 13.8673 74.27 14.7407 74.27 15.7007C74.27 16.2073 74.2153 16.7607 74.1059 17.3607C73.9962 17.9473 73.8044 18.514 73.5307 19.0607C73.2702 19.594 72.9007 20.034 72.4212 20.3807C71.942 20.714 71.3257 20.8807 70.5724 20.8807ZM70.9832 19.3607C71.6815 19.3607 72.2568 19.194 72.709 18.8607C73.1745 18.5273 73.517 18.0873 73.7361 17.5407C73.9552 16.9807 74.0645 16.3673 74.0645 15.7007C74.0645 14.9673 73.9483 14.3273 73.7156 13.7807C73.4961 13.2207 73.154 12.7874 72.6881 12.4807C72.2363 12.1607 71.6678 12.0007 70.9832 12.0007C69.9561 12.0007 69.1618 12.354 68.6002 13.0607C68.0386 13.754 67.758 14.634 67.758 15.7007C67.758 16.4073 67.895 17.0407 68.1688 17.6007C68.4563 18.1473 68.8398 18.5807 69.3193 18.9007C69.8122 19.2073 70.3669 19.3607 70.9832 19.3607ZM74.0645 10.6807H75.7079V20.6807H74.2084C74.2084 20.6807 74.1948 20.5607 74.1674 20.3207C74.1538 20.0807 74.1333 19.8007 74.1059 19.4807C74.0782 19.1607 74.0645 18.894 74.0645 18.6807V10.6807Z" fill="#CBCBCB"/>
<path d="M82.2681 20.8807C81.4464 20.8807 80.6931 20.6607 80.0085 20.2207C79.3375 19.7674 78.8033 19.154 78.4061 18.3807C78.0089 17.594 77.8103 16.7007 77.8103 15.7007C77.8103 14.7007 78.0021 13.8073 78.3856 13.0207C78.7691 12.234 79.2961 11.614 79.9674 11.1607C80.6384 10.7074 81.4054 10.4807 82.2681 10.4807C83.0351 10.4807 83.6582 10.6207 84.1374 10.9007C84.6306 11.1673 85.0073 11.5407 85.2674 12.0207C85.5275 12.5007 85.7056 13.054 85.8016 13.6807C85.911 14.3073 85.966 14.9807 85.966 15.7007C85.966 16.2073 85.911 16.7607 85.8016 17.3607C85.6919 17.9473 85.5002 18.514 85.2264 19.0607C84.9663 19.594 84.5965 20.034 84.1169 20.3807C83.6377 20.714 83.0214 20.8807 82.2681 20.8807ZM82.6789 19.3607C83.3776 19.3607 83.9528 19.194 84.4047 18.8607C84.8702 18.5273 85.2127 18.0873 85.4318 17.5407C85.6509 16.9807 85.7603 16.3673 85.7603 15.7007C85.7603 14.9673 85.6441 14.3273 85.4113 13.7807C85.1922 13.2207 84.8497 12.7874 84.3842 12.4807C83.932 12.1607 83.3639 12.0007 82.6789 12.0007C81.6518 12.0007 80.8575 12.354 80.2959 13.0607C79.7347 13.754 79.4537 14.634 79.4537 15.7007C79.4537 16.4073 79.5908 17.0407 79.8646 17.6007C80.1524 18.1473 80.5359 18.5807 81.0151 18.9007C81.5079 19.2073 82.0627 19.3607 82.6789 19.3607ZM85.7603 6.68066H87.404V20.6807H85.9042C85.8768 20.3873 85.8427 20.0407 85.8016 19.6407C85.7743 19.2407 85.7603 18.9207 85.7603 18.6807V6.68066Z" fill="#CBCBCB"/>
<path d="M97.6546 17.4607H99.1951C99.0857 18.114 98.8393 18.7007 98.4558 19.2207C98.0859 19.7274 97.5927 20.134 96.9764 20.4407C96.3739 20.734 95.6756 20.8807 94.8812 20.8807C93.9225 20.8807 93.0598 20.6607 92.2928 20.2207C91.5257 19.7674 90.9163 19.154 90.4645 18.3807C90.0263 17.594 89.8072 16.7007 89.8072 15.7007C89.8072 14.7007 90.0194 13.8073 90.444 13.0207C90.8821 12.234 91.4779 11.614 92.2312 11.1607C92.9842 10.7074 93.8336 10.4807 94.7783 10.4807C95.7781 10.4807 96.6206 10.7007 97.3053 11.1407C98.0036 11.5674 98.5173 12.2007 98.8461 13.0407C99.1882 13.8673 99.3253 14.8873 99.257 16.1007H91.4506C91.5189 16.754 91.7038 17.3273 92.0053 17.8207C92.3064 18.314 92.7036 18.7007 93.1968 18.9807C93.6897 19.2473 94.2513 19.3807 94.8812 19.3807C95.5795 19.3807 96.1684 19.2073 96.648 18.8607C97.1409 18.5007 97.4765 18.034 97.6546 17.4607ZM94.8402 11.9807C93.9908 11.9807 93.2789 12.2207 92.7036 12.7007C92.1283 13.1807 91.7448 13.834 91.5531 14.6607H97.5722C97.5175 13.7807 97.2229 13.114 96.689 12.6607C96.1684 12.2073 95.5522 11.9807 94.8402 11.9807Z" fill="#CBCBCB"/>
<path d="M100.883 17.4607H102.403C102.444 18.034 102.663 18.5007 103.06 18.8607C103.471 19.2207 104.06 19.4007 104.827 19.4007C105.293 19.4007 105.656 19.3407 105.916 19.2207C106.19 19.1007 106.388 18.9407 106.512 18.7407C106.635 18.5273 106.696 18.294 106.696 18.0407C106.696 17.734 106.614 17.494 106.45 17.3207C106.299 17.134 106.087 16.9807 105.813 16.8607C105.553 16.7407 105.252 16.6273 104.909 16.5207C104.512 16.374 104.101 16.2207 103.677 16.0607C103.266 15.8873 102.875 15.6874 102.506 15.4607C102.15 15.2207 101.862 14.934 101.643 14.6007C101.424 14.254 101.314 13.8407 101.314 13.3607C101.314 12.9607 101.396 12.5874 101.561 12.2407C101.725 11.8807 101.958 11.574 102.259 11.3207C102.574 11.054 102.937 10.8473 103.348 10.7007C103.773 10.554 104.238 10.4807 104.745 10.4807C105.43 10.4807 106.005 10.614 106.47 10.8807C106.95 11.1473 107.313 11.5273 107.559 12.0207C107.82 12.5007 107.957 13.0607 107.97 13.7007H106.553C106.457 13.1007 106.258 12.6674 105.957 12.4007C105.669 12.1207 105.252 11.9807 104.704 11.9807C104.142 11.9807 103.711 12.1007 103.41 12.3407C103.109 12.5807 102.958 12.9007 102.958 13.3007C102.958 13.594 103.067 13.8407 103.286 14.0407C103.506 14.2273 103.786 14.4007 104.129 14.5607C104.485 14.7074 104.861 14.8607 105.258 15.0207C105.656 15.1807 106.039 15.3407 106.409 15.5007C106.779 15.6607 107.107 15.8473 107.395 16.0607C107.682 16.274 107.908 16.5407 108.073 16.8607C108.251 17.1673 108.34 17.554 108.34 18.0207C108.34 18.5807 108.203 19.0807 107.929 19.5207C107.669 19.9473 107.278 20.2807 106.758 20.5207C106.251 20.7607 105.628 20.8807 104.889 20.8807C104.218 20.8807 103.642 20.8007 103.163 20.6407C102.698 20.4673 102.307 20.2473 101.992 19.9807C101.677 19.7007 101.431 19.4073 101.253 19.1007C101.088 18.794 100.979 18.494 100.924 18.2007C100.869 17.9073 100.855 17.6607 100.883 17.4607Z" fill="#CBCBCB"/>
<path d="M111.481 6.68066C112.031 6.68066 112.477 7.11497 112.477 7.65068C112.477 8.18639 112.031 8.62067 111.481 8.62067H111.337C110.787 8.62067 110.341 8.18639 110.341 7.65068C110.341 7.11497 110.787 6.68066 111.337 6.68066H111.481ZM110.588 10.6807H112.231V20.6807H110.588V10.6807Z" fill="#CBCBCB"/>
<path d="M118.715 19.1007C117.989 19.1007 117.297 18.934 116.64 18.6007C115.996 18.254 115.469 17.7607 115.058 17.1207C114.661 16.4807 114.462 15.714 114.462 14.8207C114.462 13.9273 114.661 13.1607 115.058 12.5207C115.455 11.8673 115.976 11.3673 116.62 11.0207C117.263 10.6607 117.962 10.4807 118.715 10.4807C118.948 10.4807 119.167 10.5007 119.372 10.5407C119.592 10.5674 119.797 10.614 119.989 10.6807H124.159V12.4007C123.57 12.4007 122.981 12.294 122.392 12.0807C121.817 11.8673 121.324 11.6474 120.913 11.4207L120.831 11.3407C121.31 11.594 121.7 11.894 122.002 12.2407C122.317 12.5874 122.549 12.9807 122.7 13.4207C122.865 13.8473 122.947 14.314 122.947 14.8207C122.947 15.714 122.748 16.4807 122.351 17.1207C121.967 17.7607 121.454 18.254 120.81 18.6007C120.167 18.934 119.468 19.1007 118.715 19.1007ZM121.735 24.6807V24.2407C121.735 23.534 121.543 23.0207 121.159 22.7007C120.79 22.3807 120.228 22.2207 119.475 22.2207H117.421C116.969 22.2207 116.572 22.1807 116.229 22.1007C115.9 22.034 115.627 21.9273 115.408 21.7807C115.188 21.634 115.024 21.454 114.914 21.2407C114.805 21.0273 114.75 20.7873 114.75 20.5207C114.75 20.014 114.908 19.634 115.223 19.3807C115.538 19.114 115.928 18.9473 116.394 18.8807C116.859 18.814 117.304 18.814 117.729 18.8807L118.715 19.1007C117.976 19.1407 117.4 19.214 116.989 19.3207C116.592 19.4273 116.394 19.654 116.394 20.0007C116.394 20.2007 116.469 20.3673 116.62 20.5007C116.784 20.6207 117.024 20.6807 117.338 20.6807H119.475C120.187 20.6807 120.838 20.774 121.427 20.9607C122.016 21.1607 122.488 21.4873 122.844 21.9407C123.2 22.4073 123.378 23.0407 123.378 23.8407V24.6807H121.735ZM118.715 17.6007C119.167 17.6007 119.585 17.494 119.968 17.2807C120.365 17.0673 120.687 16.754 120.933 16.3407C121.18 15.9273 121.303 15.4207 121.303 14.8207C121.303 14.2207 121.18 13.714 120.933 13.3007C120.701 12.874 120.386 12.554 119.989 12.3407C119.592 12.114 119.167 12.0007 118.715 12.0007C118.263 12.0007 117.838 12.114 117.441 12.3407C117.044 12.554 116.722 12.8673 116.476 13.2807C116.229 13.694 116.106 14.2073 116.106 14.8207C116.106 15.4207 116.229 15.9273 116.476 16.3407C116.722 16.754 117.044 17.0673 117.441 17.2807C117.838 17.494 118.263 17.6007 118.715 17.6007Z" fill="#CBCBCB"/>
<path d="M126.092 10.6807H127.735V20.6807H126.092V10.6807ZM131.269 10.4807C131.816 10.4807 132.309 10.5607 132.748 10.7207C133.186 10.8807 133.556 11.114 133.857 11.4207C134.158 11.7274 134.391 12.1007 134.555 12.5407C134.72 12.9673 134.802 13.454 134.802 14.0007V20.6807H133.158V14.4007C133.158 13.6274 132.973 13.0473 132.604 12.6607C132.234 12.274 131.679 12.0807 130.94 12.0807C130.378 12.0807 129.858 12.2207 129.378 12.5007C128.899 12.7807 128.502 13.1673 128.187 13.6607C127.886 14.1407 127.701 14.7007 127.632 15.3407L127.612 14.1807C127.68 13.6207 127.817 13.114 128.022 12.6607C128.242 12.2073 128.509 11.8207 128.824 11.5007C129.152 11.1673 129.522 10.914 129.933 10.7407C130.358 10.5674 130.803 10.4807 131.269 10.4807Z" fill="#CBCBCB"/>
</svg>
