<svg width="98" height="32" viewBox="0 0 98 32" fill="none" xmlns="http://www.w3.org/2000/svg">
<path d="M10.075 26.4265C8.83537 26.4265 7.66667 26.2052 6.56874 25.7624C5.48853 25.302 4.54999 24.6557 3.75312 23.8234C2.97395 22.9911 2.38958 22.0083 2 20.8749L5.37343 19.3609C5.86925 20.4411 6.55103 21.2911 7.41873 21.9109C8.30417 22.5307 9.27812 22.8406 10.3406 22.8406C10.9072 22.8406 11.3942 22.752 11.8015 22.5749C12.2088 22.3979 12.5276 22.1588 12.7578 21.8578C12.988 21.539 13.1031 21.1671 13.1031 20.7421C13.1031 20.2817 12.9614 19.8921 12.6781 19.5734C12.3947 19.2369 11.952 18.9713 11.35 18.7766L7.47185 17.5015C5.89582 16.988 4.70936 16.2619 3.91249 15.3234C3.11562 14.3671 2.71718 13.225 2.71718 11.8969C2.71718 10.7281 3.00052 9.70103 3.56718 8.81559C4.15155 7.93021 4.95728 7.23959 5.98436 6.74375C7.02915 6.24792 8.22443 6 9.57029 6C10.7567 6 11.8546 6.20365 12.864 6.61094C13.8734 7.01821 14.7411 7.59377 15.4671 8.33751C16.2109 9.08125 16.7687 9.97553 17.1406 11.0203L13.7937 12.5344C13.4218 11.6135 12.864 10.8964 12.1203 10.3828C11.3766 9.85156 10.5265 9.58596 9.57029 9.58596C9.02136 9.58596 8.53438 9.67447 8.10936 9.85156C7.68433 10.0286 7.35675 10.2854 7.12654 10.6219C6.89634 10.9406 6.78124 11.3125 6.78124 11.7375C6.78124 12.1979 6.93175 12.6052 7.23279 12.9593C7.5338 13.2958 7.98539 13.5614 8.5875 13.7562L12.3859 14.9781C13.9796 15.4916 15.1661 16.2088 15.9453 17.1296C16.7421 18.0505 17.1406 19.1749 17.1406 20.5031C17.1406 21.6541 16.8395 22.6812 16.2374 23.5843C15.6354 24.4697 14.8031 25.1692 13.7406 25.6827C12.6958 26.1786 11.4739 26.4265 10.075 26.4265Z" fill="#CBCBCB"/>
<path d="M20.0746 26.1077V6.31873H24.1918V26.1077H20.0746Z" fill="#CBCBCB"/>
<path d="M27.7009 26.1077V6.31873H31.8181V22.5218H54.1853V26.1077H27.7009Z" fill="#CBCBCB"/>
<path d="M54.5499 13.5734C54.5499 14.8129 54.3286 15.9817 53.8858 17.0796C53.4254 18.1598 52.7791 19.0984 51.9468 19.8952C51.1145 20.6744 50.1317 21.2587 48.9983 21.6483L47.4843 18.2749C48.5645 17.7791 49.4145 17.0973 50.0343 16.2296C50.6541 15.3442 50.964 14.3702 50.964 13.3077C50.964 12.7411 50.8755 12.2541 50.6984 11.8468C50.5213 11.4395 50.2822 11.1208 49.9812 10.8906C49.6624 10.6603 49.2906 10.5453 48.8655 10.5453C48.4051 10.5453 48.0155 10.6869 47.6968 10.9702C47.3603 11.2536 47.0947 11.6963 46.9 12.2984L45.625 16.1764C45.1114 17.7525 44.3853 18.9389 43.4468 19.7359C42.4906 20.5327 41.3484 20.9311 40.0203 20.9311C38.8515 20.9311 37.8244 20.6478 36.939 20.0811C36.0536 19.4968 35.363 18.6911 34.8672 17.664C34.3713 16.6192 34.1234 15.4239 34.1234 14.0781C34.1234 12.8916 34.3271 11.7937 34.7344 10.7843C35.1416 9.77491 35.7172 8.9072 36.4609 8.18118C37.2047 7.43744 38.0989 6.87961 39.1437 6.50777L40.6578 9.85465C39.737 10.2265 39.0198 10.7843 38.5062 11.5281C37.975 12.2718 37.7094 13.1218 37.7094 14.0781C37.7094 14.627 37.7979 15.114 37.975 15.539C38.1521 15.964 38.4088 16.2916 38.7453 16.5218C39.064 16.752 39.4359 16.8671 39.8609 16.8671C40.3213 16.8671 40.7286 16.7166 41.0827 16.4155C41.4192 16.1145 41.6849 15.6629 41.8796 15.0609L43.1015 11.2625C43.615 9.66867 44.3322 8.48224 45.2531 7.70304C46.1739 6.90617 47.2984 6.50777 48.6265 6.50777C49.7775 6.50777 50.8046 6.80883 51.7077 7.41087C52.5931 8.01299 53.2926 8.84524 53.8061 9.90777C54.302 10.9525 54.5499 12.1744 54.5499 13.5734Z" fill="#CBCBCB"/>
<path d="M56.4254 26.1077V6.31873H60.5426V26.1077H56.4254Z" fill="#CBCBCB"/>
<path d="M63.1234 26.2968V6.50781H67.2405V22.7109H75.6079V26.2968H63.1234Z" fill="#CBCBCB"/>
<path d="M77.1173 26.1077L83.8111 6.31873H89.2824L95.9762 26.1077H91.4872L90.1592 22.0702H82.9074L81.5794 26.1077H77.1173ZM84.0498 18.4843H89.0168L85.989 9.13435H87.1045L84.0498 18.4843Z" fill="#CBCBCB"/>
</svg>
