<svg width="92" height="24" viewBox="0 0 92 24" fill="none" xmlns="http://www.w3.org/2000/svg">
<path fill-rule="evenodd" clip-rule="evenodd" d="M12.5665 0C13.0863 0 13.5076 0.421379 13.5076 0.941176V6.11765C13.5076 6.63744 13.0863 7.05882 12.5665 7.05882C12.0467 7.05882 11.6253 6.63744 11.6253 6.11765V0.941176C11.6253 0.421379 12.0467 0 12.5665 0ZM17.7429 0C18.2627 0 18.6841 0.421379 18.6841 0.941176V12.2353H13.5076V19.2941H17.2723V17.4118C17.2723 16.892 17.6937 16.4706 18.2135 16.4706C18.7333 16.4706 19.1547 16.892 19.1547 17.4118V23.0588C19.1547 23.5786 18.7333 24 18.2135 24C17.6937 24 17.2723 23.5786 17.2723 23.0588V21.1765H13.5076V23.0588C13.5076 23.5786 13.0863 24 12.5665 24C12.0467 24 11.6253 23.5786 11.6253 23.0588V10.3529H16.8018V0.941176C16.8018 0.421379 17.2231 0 17.7429 0ZM7.38999 2.82353C7.90979 2.82353 8.33117 3.24491 8.33117 3.76471V20.2353C8.33117 20.7551 7.90979 21.1765 7.38999 21.1765C6.8702 21.1765 6.44882 20.7551 6.44882 20.2353V8.47059H2.68411V12.2353C2.68411 12.7551 2.26273 13.1765 1.74293 13.1765C1.22314 13.1765 0.801758 12.7551 0.801758 12.2353V6.11765C0.801758 5.59785 1.22314 5.17647 1.74293 5.17647C2.26273 5.17647 2.68411 5.59785 2.68411 6.11765V6.58824H6.44882V3.76471C6.44882 3.24491 6.8702 2.82353 7.38999 2.82353ZM23.8606 2.82353C24.3804 2.82353 24.8018 3.24491 24.8018 3.76471V7.52941H27.6253V6.11765C27.6253 5.59785 28.0467 5.17647 28.5665 5.17647C29.0863 5.17647 29.5076 5.59785 29.5076 6.11765V17.8824C29.5076 18.4022 29.0863 18.8235 28.5665 18.8235C28.0467 18.8235 27.6253 18.4022 27.6253 17.8824V16.9412H24.8018V19.2941C24.8018 19.8139 24.3804 20.2353 23.8606 20.2353C23.3408 20.2353 22.9194 19.8139 22.9194 19.2941V3.76471C22.9194 3.24491 23.3408 2.82353 23.8606 2.82353ZM24.8018 15.0588H27.6253V9.41177H24.8018V15.0588Z" fill="#CBCBCB"/>
<path d="M50.5001 18.3645H47.5331L44.9863 9.93617L42.4919 18.3645H39.5512L35.5076 5H38.4221L40.9953 13.4808L43.4897 5H46.4303L48.9772 13.4284L51.4978 5H54.4122L50.5001 18.3645Z" fill="#CBCBCB"/>
<path d="M55.5438 9.22725C55.5962 8.66713 55.7188 8.13322 55.9113 7.62565C56.1214 7.11802 56.419 6.67166 56.8041 6.28656C57.1892 5.90146 57.6706 5.59514 58.2482 5.36758C58.8258 5.12252 59.491 5 60.2436 5H61.819C62.6067 5 63.2894 5.13127 63.867 5.39385C64.4622 5.65641 64.9523 6.00649 65.3374 6.4441C65.7225 6.8642 66.0114 7.35426 66.2039 7.91451C66.3965 8.45703 66.4927 9.00842 66.4927 9.56866V18.3645H59.0359C58.4583 18.3645 57.9418 18.2595 57.4867 18.0494C57.0317 17.8218 56.6466 17.5331 56.3315 17.1829C56.0339 16.8154 55.8063 16.3865 55.6488 15.8964C55.5087 15.4063 55.4387 14.8812 55.4387 14.321C55.4387 13.7784 55.5175 13.2708 55.675 12.7982C55.8326 12.3256 56.0601 11.9229 56.3577 11.5903C56.6553 11.2403 57.0229 10.9689 57.4605 10.7764C57.9156 10.5663 58.4232 10.4613 58.9833 10.4613H63.4732V10.1988C63.4732 9.88374 63.447 9.59488 63.3944 9.33236C63.342 9.05223 63.2457 8.81593 63.1057 8.62343C62.9656 8.43082 62.7555 8.28202 62.4755 8.17703C62.1954 8.05445 61.819 7.99328 61.3464 7.99328H60.69C59.9898 7.99328 59.491 8.09826 59.1934 8.30836C58.8958 8.50085 58.6946 8.80719 58.5895 9.22725H55.5438ZM55.9113 14.321C55.9113 14.7762 58.3357 15.1175 58.5107 15.345C58.7033 15.5551 58.9134 15.6601 59.1409 15.6601H63.4732V12.982H59.1409C58.9134 12.982 58.7033 13.0957 58.5107 13.3232C58.3357 13.5508 55.9113 13.8834 55.9113 14.321Z" fill="#CBCBCB"/>
<path d="M74.7996 18.3645H71.8589L67.8153 5H70.7298L73.303 13.4808L75.7974 5H78.738L74.7996 18.3645Z" fill="#CBCBCB"/>
<path d="M80.1091 9.75242C80.1091 9.10479 80.2317 8.50085 80.4767 7.94073C80.7218 7.36313 81.0456 6.85545 81.4482 6.41785C81.8508 5.98023 82.3146 5.6389 82.8398 5.39385C83.3649 5.13127 83.89 5 84.4152 5H87.4084C88.091 5 88.695 5.14879 89.2201 5.44635C89.7628 5.72642 90.209 6.09402 90.5592 6.54912C90.9267 6.98673 91.2068 7.48559 91.3993 8.04571C91.6094 8.58836 91.7144 9.12226 91.7144 9.64743V13.0345H83.2073V13.7434C83.2073 14.3736 83.3825 14.8199 83.7325 15.0825C84.0826 15.345 84.5464 15.4764 85.1241 15.4764H91.2418V18.417H84.4414C83.8463 18.417 83.2861 18.3032 82.761 18.0757C82.2359 17.8306 81.772 17.5068 81.3694 17.1042C80.9843 16.7016 80.678 16.2202 80.4504 15.6601C80.2229 15.1 80.1091 14.4873 80.1091 13.8222V9.75242ZM83.2337 10.5401H85.9512L87.4741 12.2106L88.6687 10.5401V10.4088C88.6687 9.7262 88.4937 9.16596 88.1436 8.72842C87.7935 8.27328 87.3209 8.04571 86.7257 8.04571H85.0978C84.8178 8.04571 84.564 8.11574 84.3364 8.2558C84.1089 8.37826 83.9162 8.54466 83.7587 8.75463C83.6012 8.96473 83.47 9.21851 83.3649 9.51611C83.2774 9.79611 83.2337 10.0937 83.2337 10.4088V10.5401Z" fill="#CBCBCB"/>
</svg>
